<svg xmlns="http://www.w3.org/2000/svg" viewBox="0 0 100 100">
  <!-- Outer circle -->
  <circle cx="50" cy="50" r="48" fill="#f5f2e9"/>
  
  <!-- Inner square with rays -->
  <g transform="translate(25,25) scale(0.5)">
    <!-- Blue quadrant -->
    <path d="M50 50 L50 0 L0 0 L0 50 Z" fill="#a7c4d2"/>
    <path d="M50 50 L50 0 L0 0 L0 50" fill="none" stroke="#f5f2e9" stroke-width="1">
      <animate attributeName="d" dur="30s" repeatCount="indefinite"
        values="M50 50 L50 0 L0 0 L0 50;M50 50 L50 0 L0 0 L0 50"/>
    </path>
    
    <!-- Yellow quadrant -->
    <path d="M50 50 L100 50 L100 0 L50 0 Z" fill="#f3e3b6"/>
    <path d="M50 50 L100 50 L100 0 L50 0" fill="none" stroke="#f5f2e9" stroke-width="1"/>
    
    <!-- Light pink quadrants -->
    <path d="M50 50 L50 100 L0 100 L0 50 Z" fill="#f3d4d4"/>
    <path d="M50 50 L100 50 L100 100 L50 100 Z" fill="#f3d4d4"/>
    <path d="M50 50 L50 100 L0 100 L0 50" fill="none" stroke="#f5f2e9" stroke-width="1"/>
    <path d="M50 50 L100 50 L100 100 L50 100" fill="none" stroke="#f5f2e9" stroke-width="1"/>
  </g>
</svg>
